# xmcd
#
# Track frame offsets:
#	150
#	14428
#	31167
#	50832
#	69112
#	81914
#	98803
#	115769
#	131855
#	148284
#	163481
#	176809
#	191069
#	206658
#	222825
#	236694
#	249153
#	261775
#	274831
#	289742
#
# Disc length: 4064 seconds
#
# Revision: 1
# Processed by: cddbd v1.5.2PL0 Copyright (c) Steve Scherf et al.
# Submitted via: audiograbber 1.83.01
#
DISCID=360fde14
DTITLE=Various Artist - CDX 633
DYEAR=2016
DGENRE=Country
TTITLE0=Alabama w. Alison Krauss - Come Find Me
TTITLE1=Josh Turner - Hometown Girl
TTITLE2=Chris Stapleton - Parachute
TTITLE3=The Scott Family - Thy Will
TTITLE4=Troy Johnson - Need Me Some Country
TTITLE5=Wayne Toups - A Good One
TTITLE6=The Stickers - Ain't Nothin' Better
TTITLE7=Madison Station - Back In The Day
TTITLE8=Shane Owens - Country Never Goes Out of Style
TTITLE9=Steve Dorian - Edge Of 18
TTITLE10=Luk Nichols - Home Made Lovin'
TTITLE11=Tony McKee - Lightning Bugs
TTITLE12=Corinne Cook - Little Miss Understanding
TTITLE13=Billy Lord - Netflix and Chill
TTITLE14=Hillbilly Vegas - Shake It Like A Hillbilly
TTITLE15=Nick Smith - She Ain't LA
TTITLE16=Brad Puckett - Start Your Engines
TTITLE17=Vince Hatfield - The Okie From Muskogees Headed Home
TTITLE18=Mallory Johnson - Tupelo
TTITLE19=SaraBeth - You Rock My Rodeo
EXTD=
EXTT0=
EXTT1=
EXTT2=
EXTT3=
EXTT4=
EXTT5=
EXTT6=
EXTT7=
EXTT8=
EXTT9=
EXTT10=
EXTT11=
EXTT12=
EXTT13=
EXTT14=
EXTT15=
EXTT16=
EXTT17=
EXTT18=
EXTT19=
PLAYORDER=
